# xmcd
#
# Track frame offsets:
#	150
#	15405
#	26734
#	41203
#	61789
#	80604
#	96621
#	109087
#	120003
#	132025
#	144391
#	154834
#
# Disc length: 2183 seconds
#
# Revision: 1
# Processed by: cddbd v1.5.2PL0 Copyright (c) Steve Scherf et al.
# Submitted via: EZCDAudioConverter 2.1.7.1
#
DISCID=9508850c
DTITLE=Stringtronics - Mindbender 
DYEAR=1972
DGENRE=
TTITLE0=Barry Forgie - Mindbender
TTITLE1=Barry Forgie - Mediterranee 
TTITLE2=Barry Forgie - Ballata
TTITLE3=Barry Forgie - Haunted
TTITLE4=Barry Forgie - Catharsis
TTITLE5=Barry Forgie - Dawn Mists 
TTITLE6=Anthony Mawer - Undercover Girl
TTITLE7=Anthony Mawer - Freedom Road
TTITLE8=Nino Nardini - Afro-Samba
TTITLE9=Nino Nardini - Tropicola
TTITLE10=Roger Roger - Safari Park 
TTITLE11=Roger Roger - Perdition
EXTD=
EXTT0=
EXTT1=
EXTT2=
EXTT3=
EXTT4=
EXTT5=
EXTT6=
EXTT7=
EXTT8=
EXTT9=
EXTT10=
EXTT11=
PLAYORDER=
